<?xml version="1.0" standalone="no"?>
<svg viewBox="0 0 200 200" xmlns="http://www.w3.org/2000/svg">
  <path fill="#FF0066" d="M43.9,-75.8C57.4,-68.2,69.4,-57.6,77.5,-44.5C85.5,-31.3,89.7,-15.7,90.5,0.5C91.4,16.6,88.9,33.3,81,46.6C73,59.9,59.6,70,45.2,77C30.8,84,15.4,87.9,-0.5,88.8C-16.4,89.6,-32.8,87.4,-46.9,80.3C-61.1,73.1,-73,61.1,-81,46.9C-89,32.7,-93.2,16.3,-92.3,0.5C-91.4,-15.3,-85.4,-30.6,-76.5,-43.3C-67.6,-55.9,-55.8,-66.1,-42.5,-73.9C-29.3,-81.8,-14.7,-87.4,0.2,-87.9C15.2,-88.3,30.3,-83.5,43.9,-75.8Z" transform="translate(100 100)" />
</svg>
